<?xml version="1.0" encoding="utf-8"?>
<!-- Generator: Adobe Illustrator 25.2.3, SVG Export Plug-In . SVG Version: 6.00 Build 0)  -->
<svg version="1.1" id="Camada_1" xmlns="http://www.w3.org/2000/svg" xmlns:xlink="http://www.w3.org/1999/xlink" x="0px" y="0px"
	 viewBox="0 0 354.04 354.04" style="enable-background:new 0 0 354.04 354.04;" xml:space="preserve">
<style type="text/css">
	.st0{fill:#FFFFFF;}
	.st1{fill:#1E1E1C;}
	.st2{fill:#E42829;}
	.st3{fill:#020203;}
	.st4{fill:none;stroke:#E6332A;stroke-width:5;stroke-miterlimit:10;}
	.st5{clip-path:url(#SVGID_4_);fill:none;stroke:#E6332A;stroke-width:5;stroke-miterlimit:10;}
	.st6{clip-path:url(#SVGID_6_);fill:none;stroke:#E6332A;stroke-width:5;stroke-miterlimit:10;}
	.st7{clip-path:url(#SVGID_8_);fill:none;stroke:#E6332A;stroke-width:5;stroke-miterlimit:10;}
	.st8{fill:#E62F2B;}
	.st9{clip-path:url(#SVGID_10_);fill:none;stroke:#E6332A;stroke-width:5;stroke-miterlimit:10;}
	.st10{clip-path:url(#SVGID_12_);fill:none;stroke:#E6332A;stroke-width:5;stroke-miterlimit:10;}
	.st11{clip-path:url(#SVGID_14_);fill:none;stroke:#E6332A;stroke-width:5;stroke-miterlimit:10;}
	.st12{fill:none;}
</style>
<g>
	<g>
		<path class="st0" d="M253.87,96.39l-4.52,0.03c-0.75,0-1.45,0.38-1.88,1l-2.54,3.74c-1.06,1.57-3.46,1.23-4.06-0.57l-1.42-4.29
			c-0.24-0.71-0.81-1.27-1.53-1.48l-4.34-1.26c-1.82-0.53-2.24-2.91-0.71-4.03l3.64-2.68c0.61-0.45,0.95-1.16,0.93-1.91l-0.14-4.52
			c-0.06-1.89,2.08-3.03,3.61-1.93l3.67,2.64c0.61,0.44,1.4,0.55,2.1,0.29l4.25-1.53c1.78-0.64,3.52,1.04,2.95,2.84l-1.37,4.31
			c-0.23,0.72-0.09,1.5,0.37,2.09l2.77,3.57C256.82,94.2,255.76,96.38,253.87,96.39z"/>
	</g>
	<g>
		<path class="st0" d="M283.58,127.77l-3.49,0.02c-0.58,0-1.12,0.29-1.45,0.77l-1.96,2.89c-0.82,1.21-2.67,0.95-3.13-0.44l-1.1-3.31
			c-0.18-0.55-0.62-0.98-1.18-1.14l-3.35-0.97c-1.4-0.41-1.73-2.25-0.55-3.11l2.81-2.07c0.47-0.34,0.74-0.89,0.72-1.47l-0.11-3.49
			c-0.05-1.46,1.6-2.34,2.79-1.49l2.83,2.04c0.47,0.34,1.08,0.42,1.62,0.23l3.28-1.18c1.37-0.49,2.72,0.8,2.28,2.19l-1.06,3.32
			c-0.18,0.55-0.07,1.16,0.29,1.61l2.14,2.76C285.86,126.08,285.04,127.76,283.58,127.77z"/>
	</g>
	<g>
		<path class="st0" d="M90.9,277.83l-4.57,0.03c-0.76,0-1.47,0.38-1.9,1.01l-2.57,3.78c-1.08,1.58-3.5,1.24-4.1-0.57l-1.44-4.34
			c-0.24-0.72-0.82-1.28-1.55-1.49l-4.39-1.28c-1.84-0.53-2.27-2.95-0.72-4.08l3.69-2.71c0.61-0.45,0.96-1.17,0.94-1.93l-0.14-4.57
			c-0.06-1.91,2.1-3.07,3.66-1.95l3.72,2.67c0.62,0.44,1.41,0.55,2.13,0.3l4.3-1.55c1.8-0.65,3.56,1.05,2.98,2.88l-1.39,4.36
			c-0.23,0.72-0.09,1.52,0.38,2.12l2.8,3.61C93.88,275.62,92.81,277.82,90.9,277.83z"/>
	</g>
	<path class="st0" d="M265.29,196.26c0-0.2,0.01-0.41,0.01-0.61c0-0.05,0-0.1,0-0.15c0-0.34,0.01-0.68,0.01-1.03
		c0-47.79-36.91-87.12-83.73-90.99c-0.68-0.09-1.36-0.17-2.05-0.22V70.99c0-1.51-1.22-2.74-2.74-2.74h-3.84
		c-1.51,0-2.74,1.22-2.74,2.74v32.26c-48.6,1.99-87.52,42.14-87.52,91.22c0,0.11,0,0.22,0,0.33c-0.01,0.28-0.02,0.56-0.02,0.84
		c0,0.81,0.03,1.62,0.09,2.42c1.89,48.69,42.09,87.72,91.23,87.72c1.05,0,2.09-0.02,3.12-0.06c1.04,0,2.07-0.06,3.09-0.16
		c46.6-3.15,83.72-41.41,85.05-88.47c0,0,0,0,0,0C265.29,196.81,265.29,196.54,265.29,196.26z M256.78,195.37
		c0,0.44-0.02,0.88-0.03,1.32c-0.53,14.12-11.82,26.73-29.36,35.25c3.13-11.44,4.88-24.14,4.88-37.49c0-0.22,0-0.44,0-0.66
		c9.54-5.13,17.17-11.53,22.2-18.81c1.52,6.26,2.34,12.78,2.34,19.5h-0.06C256.76,194.77,256.77,195.07,256.78,195.37z
		 M179.93,277.04c-0.13,0.01-0.26,0.02-0.39,0.03v-25.48c12.08-0.45,23.54-2.34,33.92-5.4
		C205.45,263.82,193.46,275.55,179.93,277.04z M91.23,195.03c0.01-0.18,0.02-0.37,0.02-0.55h-0.04c0-6.72,0.82-13.24,2.34-19.5
		c6.05,8.75,15.83,16.23,28.2,21.75c0.2,13.7,2.25,26.65,5.73,38.22c-20.86-8.16-34.91-21.64-36.18-37.02
		C91.26,196.97,91.24,196,91.23,195.03z M214.71,145.6c-10.25,3.79-22.34,6.07-35.17,6.25v-39.96c0.45,0.03,0.9,0.07,1.35,0.1
		C194.75,114.02,206.92,126.79,214.71,145.6z M250.89,163.81c-3.09,7.73-9.77,14.7-18.98,20.33c-0.82-12.06-3.08-23.41-6.47-33.59
		c4.86-2.32,9.23-4.99,13.01-7.97C243.6,148.95,247.8,156.09,250.89,163.81z M223.62,188.54c-12.21,5.6-27.44,9.16-44.08,9.82v-38
		c14.06-0.16,27.06-2.53,38.16-6.58C221.03,164.19,223.12,175.98,223.62,188.54z M170.23,151.6c-11.22-0.75-21.7-3.11-30.68-6.64
		c7.25-17.15,18.17-29.17,30.68-32.4V151.6z M170.23,160.14v38.28c-14.72-0.39-28.39-3.08-39.92-7.43
		c0.32-13.74,2.55-26.63,6.22-37.86C146.37,156.95,157.82,159.41,170.23,160.14z M132,141.53c-5.03-2.63-9.37-5.66-12.83-9
		c8.65-7.67,18.9-13.57,30.2-17.09C142.51,121.99,136.59,130.92,132,141.53z M112.96,138.62c4.28,4.22,9.65,7.97,15.88,11.12
		c-3.85,11.28-6.3,24.03-6.93,37.62c-12.22-6.09-21.07-14.27-24.78-23.55C100.87,154.45,106.26,145.93,112.96,138.62z
		 M130.37,200.12c11.75,4.04,25.29,6.47,39.85,6.83v36.18c-11.75-0.3-22.87-2.02-32.86-4.87
		C133.4,227.05,130.91,214.05,130.37,200.12z M170.23,251.64v24.69c-11.49-2.97-21.63-13.36-28.83-28.34
		C150.41,250.12,160.11,251.39,170.23,251.64z M179.54,243.06v-36.18c16.46-0.6,31.55-3.84,44.17-9.05
		c-0.32,13.92-2.59,26.95-6.33,38.29C206.23,240.06,193.34,242.53,179.54,243.06z M232.63,136.07c-3.01,2.29-6.46,4.4-10.28,6.27
		c-3.85-9.1-8.67-17-14.22-23.27C217.31,123.24,225.6,129.02,232.63,136.07z M97.58,226.28c8.39,7.86,19.91,14.35,33.47,18.81
		c4.72,11.66,11.03,21.43,18.4,28.46C125.98,266.25,106.97,248.76,97.58,226.28z M208.05,269.92c6.38-7.19,11.81-16.53,15.9-27.38
		c10.55-4.25,19.59-9.8,26.5-16.29C242.37,245.62,227.13,261.28,208.05,269.92z"/>
</g>
</svg>
