<svg id="Camada_1" data-name="Camada 1" xmlns="http://www.w3.org/2000/svg" viewBox="0 0 354.04 354.04"><defs><style>.cls-1{fill:#010101;}</style></defs><path class="cls-1" d="M258.22,97.39l-4.52,0a2.29,2.29,0,0,0-1.87,1l-2.55,3.74a2.28,2.28,0,0,1-4.05-.56l-1.42-4.3a2.29,2.29,0,0,0-1.53-1.47l-4.35-1.26a2.29,2.29,0,0,1-.71-4l3.64-2.68a2.25,2.25,0,0,0,.93-1.91l-.14-4.52a2.28,2.28,0,0,1,3.62-1.92l3.67,2.64a2.31,2.31,0,0,0,2.1.29l4.26-1.53a2.29,2.29,0,0,1,2.95,2.84L256.87,88a2.3,2.3,0,0,0,.37,2.09L260,93.71A2.28,2.28,0,0,1,258.22,97.39Z"/><path class="cls-1" d="M287.93,128.77l-3.49,0a1.76,1.76,0,0,0-1.45.77l-2,2.88a1.76,1.76,0,0,1-3.13-.43l-1.1-3.32a1.74,1.74,0,0,0-1.18-1.13l-3.35-1a1.76,1.76,0,0,1-.55-3.11l2.81-2.07a1.74,1.74,0,0,0,.72-1.47l-.11-3.49a1.76,1.76,0,0,1,2.79-1.48l2.84,2a1.77,1.77,0,0,0,1.62.23l3.28-1.18a1.76,1.76,0,0,1,2.28,2.19l-1.06,3.32a1.77,1.77,0,0,0,.28,1.62l2.14,2.76A1.76,1.76,0,0,1,287.93,128.77Z"/><path class="cls-1" d="M95.25,278.83l-4.58,0a2.32,2.32,0,0,0-1.89,1l-2.57,3.79a2.32,2.32,0,0,1-4.11-.58l-1.44-4.34a2.28,2.28,0,0,0-1.54-1.49L74.72,276a2.31,2.31,0,0,1-.72-4.08l3.69-2.71a2.32,2.32,0,0,0,.94-1.93l-.14-4.57a2.3,2.3,0,0,1,3.65-1.95l3.72,2.67a2.34,2.34,0,0,0,2.13.3l4.3-1.55a2.31,2.31,0,0,1,3,2.87l-1.39,4.36a2.31,2.31,0,0,0,.38,2.12l2.8,3.61A2.31,2.31,0,0,1,95.25,278.83Z"/><path class="cls-1" d="M269.65,197.26c0-.2,0-.41,0-.61v-.15c0-.34,0-.68,0-1a91.42,91.42,0,0,0-83.73-91c-.68-.1-1.36-.17-2.05-.22V72a2.73,2.73,0,0,0-2.74-2.73h-3.84A2.73,2.73,0,0,0,174.58,72v32.26a91.43,91.43,0,0,0-87.53,91.23c0,.11,0,.22,0,.33,0,.28,0,.56,0,.84,0,.81,0,1.61.09,2.42a91.41,91.41,0,0,0,91.23,87.71q1.57,0,3.12-.06c1,0,2.07-.06,3.1-.15a91.43,91.43,0,0,0,85-88.48h0C269.64,197.81,269.64,197.54,269.65,197.26Zm-8.52-.89c0,.44,0,.88,0,1.32-.53,14.12-11.82,26.73-29.36,35.25a142.77,142.77,0,0,0,4.88-37.49c0-.22,0-.44,0-.67,9.54-5.13,17.17-11.52,22.2-18.81a82.58,82.58,0,0,1,2.35,19.51h-.07C261.11,195.77,261.12,196.07,261.13,196.37ZM184.28,278l-.39,0V252.59a138.18,138.18,0,0,0,33.92-5.41C209.8,264.82,197.81,276.55,184.28,278Zm-88.7-82c0-.18,0-.37,0-.55h0A82.58,82.58,0,0,1,97.91,176c6,8.75,15.83,16.23,28.2,21.76A140.07,140.07,0,0,0,131.84,236c-20.86-8.16-34.91-21.65-36.19-37C95.61,198,95.59,197,95.58,196ZM219.06,146.6a106.46,106.46,0,0,1-35.17,6.25v-40l1.35.1C199.1,115,211.27,127.79,219.06,146.6Zm36.18,18.21c-3.09,7.73-9.76,14.7-19,20.33a135.43,135.43,0,0,0-6.47-33.59,70,70,0,0,0,13-8A82.76,82.76,0,0,1,255.24,164.81ZM228,189.54c-12.21,5.6-27.44,9.17-44.08,9.82v-38a116.12,116.12,0,0,0,38.16-6.57A131.82,131.82,0,0,1,228,189.54ZM174.58,152.6A103.31,103.31,0,0,1,143.9,146c7.25-17.15,18.17-29.17,30.68-32.4Zm0,8.54v38.29A123.37,123.37,0,0,1,134.65,192a132.61,132.61,0,0,1,6.22-37.85A112.22,112.22,0,0,0,174.58,161.14Zm-38.23-18.61a55.42,55.42,0,0,1-12.83-9,82.55,82.55,0,0,1,30.2-17.09C146.86,123,140.94,131.92,136.35,142.53Zm-19-2.92a63,63,0,0,0,15.88,11.13,136.5,136.5,0,0,0-6.93,37.61c-12.22-6.08-21.08-14.27-24.78-23.54A83.06,83.06,0,0,1,117.31,139.61Zm17.41,61.51a133.79,133.79,0,0,0,39.86,6.82v36.18a133,133,0,0,1-32.86-4.86A130.21,130.21,0,0,1,134.72,201.12Zm39.86,51.52v24.69c-11.5-3-21.64-13.36-28.83-28.33A141.44,141.44,0,0,0,174.58,252.64Zm9.31-8.58V207.88c16.46-.6,31.55-3.84,44.17-9a132.4,132.4,0,0,1-6.34,38.28A128.8,128.8,0,0,1,183.89,244.06Zm53.09-107a62.71,62.71,0,0,1-10.28,6.27,84.87,84.87,0,0,0-14.22-23.27A83.07,83.07,0,0,1,237,137.07Zm-135,90.21c8.39,7.86,19.91,14.36,33.47,18.81,4.72,11.66,11,21.43,18.4,28.46A83.17,83.17,0,0,1,101.93,227.28ZM212.4,270.92c6.39-7.19,11.82-16.53,15.91-27.38,10.55-4.25,19.59-9.81,26.5-16.29A83.3,83.3,0,0,1,212.4,270.92Z"/></svg>